# xmcd
#
# Track frame offsets: 
#        151
#        13037
#        27450
#        39988
#        53165
#        66089
#        78992
#        91894
#        105957
#        119304
#        132250
#        145240
#        158570
#        171184
#        184956
#        198341
#        211142
#        225060
#
# Disc length: 3178 seconds
#
# Revision: 1
# Processed by: cddbd v1.5.2PL0 Copyright (c) Steve Scherf et al.
# Submitted via: ExactAudioCopy v0.95b2
#
DISCID=e00c6812
DTITLE=Big Bill Broonzy - The Essential Big Bill Broonzy Disc 1
DYEAR=2003
DGENRE=Blues
TTITLE0=Bull Cow Bules
TTITLE1=Rising Sun Shine On
TTITLE2=I Can't Be Satisfied
TTITLE3=Saturday Night Rub
TTITLE4=Too-Too Train
TTITLE5=Come On Mama (with Georgia Tom and Hannah May)
TTITLE6=Midnight Special
TTITLE7=Can't You Turst Me No More (with Bumblebee Slim)
TTITLE8=Brown Skin Shuffle
TTITLE9=How You Want It Done
TTITLE10=My Stove's In Good Condition (with Lil Johnson)
TTITLE11=Big Bill Blues
TTITLE12=Long Tall Mamma
TTITLE13=Monkey Man Bllues (with Cripple Clarence Lofton)
TTITLE14=Mr. Conductor Man
TTITLE15=Pig Meat Shuffle
TTITLE16=Rukus Juice Blues
TTITLE17=Crazy About You (with the State Street Boys)
EXTD=YEAR: 2003
EXTT0=
EXTT1=
EXTT2=
EXTT3=
EXTT4=
EXTT5=
EXTT6=
EXTT7=
EXTT8=
EXTT9=
EXTT10=
EXTT11=
EXTT12=
EXTT13=
EXTT14=
EXTT15=
EXTT16=
EXTT17=
PLAYORDER=
